<?xml version="1.0" standalone="no"?>
<!DOCTYPE svg PUBLIC "-//W3C//DTD SVG 20010904//EN"
 "http://www.w3.org/TR/2001/REC-SVG-20010904/DTD/svg10.dtd">
<svg version="1.0" xmlns="http://www.w3.org/2000/svg"
 width="915.000000pt" height="915.000000pt" viewBox="0 0 915.000000 915.000000"
 preserveAspectRatio="xMidYMid meet">
<metadata>
Created by potrace 1.14, written by Peter Selinger 2001-2017
</metadata>
<g transform="translate(0.000000,915.000000) scale(0.100000,-0.100000)"
fill="#000000" stroke="none">
<path d="M5560 8437 c0 -7 16 -67 35 -132 20 -66 37 -127 40 -135 2 -8 26 -82
53 -165 27 -82 49 -151 48 -152 -1 -2 -47 8 -102 21 -54 13 -117 27 -139 31
-22 5 -44 9 -50 11 -5 1 -30 5 -55 8 -25 4 -52 9 -60 11 -8 2 -37 6 -65 9 -27
3 -68 8 -90 10 -202 23 -476 23 -682 1 -650 -72 -1230 -318 -1863 -794 -69
-52 -139 -106 -155 -120 -17 -14 -48 -39 -69 -56 -43 -34 -55 -44 -146 -123
-202 -178 -356 -325 -556 -533 -296 -307 -652 -755 -869 -1089 -26 -41 -66
-101 -87 -133 -21 -32 -38 -61 -38 -64 0 -2 -15 -28 -34 -56 -55 -84 -172
-301 -251 -462 -214 -439 -346 -852 -394 -1230 -32 -258 -31 -472 5 -688 127
-763 697 -1327 1669 -1649 101 -34 269 -82 325 -93 8 -2 42 -10 75 -18 33 -9
71 -18 85 -20 14 -3 63 -12 110 -22 47 -9 99 -18 115 -20 17 -3 39 -6 50 -9
56 -11 214 -33 285 -40 93 -9 176 -18 210 -22 219 -26 937 -25 1225 1 22 2 72
6 110 9 39 4 81 8 95 10 14 3 52 7 85 10 33 3 71 8 85 11 14 2 43 6 65 9 44 5
159 23 300 47 341 57 891 212 1123 315 29 13 55 24 57 24 21 0 339 159 412
206 29 19 55 34 57 34 21 0 341 233 441 321 83 72 308 299 376 379 69 81 181
228 246 325 101 151 254 432 298 548 15 41 35 63 35 40 0 -5 10 -20 23 -35 12
-15 51 -63 87 -107 35 -44 68 -77 72 -73 29 30 149 325 228 562 58 172 128
426 150 546 l12 62 62 -25 c183 -74 506 -169 529 -156 18 10 -17 243 -67 453
-39 160 -123 394 -202 557 -24 50 -44 94 -44 97 0 4 -87 160 -110 196 -5 8
-27 45 -49 81 -109 179 -299 421 -477 608 -60 63 -109 119 -109 125 0 12 79
41 140 50 163 26 160 25 350 41 72 6 87 8 165 20 109 17 140 72 103 181 -36
106 -174 193 -336 211 -160 19 -363 -4 -558 -61 -94 -28 -88 -41 -87 167 1
100 -2 209 -6 242 -4 33 -9 80 -12 105 -3 25 -17 97 -30 160 -76 363 -242 698
-500 1007 -67 80 -258 273 -270 273 -20 0 -148 -325 -184 -468 l-11 -42 -57
39 c-123 83 -345 215 -502 299 -92 49 -338 172 -343 172 -3 0 -49 21 -103 46
-84 39 -262 114 -271 114 -2 0 -3 -6 -3 -13z"/>
</g>
</svg>
